<mxfile host="65bd71144e">
    <diagram id="DWC-TpvhNI_4SlBnLtU3" name="Page-1">
        <mxGraphModel dx="1130" dy="1892" grid="1" gridSize="10" guides="1" tooltips="1" connect="1" arrows="1" fold="1" page="1" pageScale="1" pageWidth="850" pageHeight="1100" math="0" shadow="0">
            <root>
                <mxCell id="0"/>
                <mxCell id="1" parent="0"/>
                <mxCell id="2" value="requested_page = getPageFromGet" style="rounded=0;whiteSpace=wrap;html=1;" parent="1" vertex="1">
                    <mxGeometry x="108" y="117.5" width="312" height="40" as="geometry"/>
                </mxCell>
                <mxCell id="3" value="return requested_page" style="rounded=0;whiteSpace=wrap;html=1;" parent="1" vertex="1">
                    <mxGeometry x="108" y="157.5" width="630" height="40" as="geometry"/>
                </mxCell>
                <mxCell id="4" value="showDocumentStart" style="rounded=0;whiteSpace=wrap;html=1;" parent="1" vertex="1">
                    <mxGeometry x="110" y="240" width="312" height="40" as="geometry"/>
                </mxCell>
                <mxCell id="5" value="showHeadSection" style="rounded=0;whiteSpace=wrap;html=1;" parent="1" vertex="1">
                    <mxGeometry x="110" y="280" width="312" height="40" as="geometry"/>
                </mxCell>
                <mxCell id="6" value="showBodySection" style="rounded=0;whiteSpace=wrap;html=1;" parent="1" vertex="1">
                    <mxGeometry x="110" y="320" width="312" height="40.31" as="geometry"/>
                </mxCell>
                <mxCell id="7" value="showDocumentEnd" style="rounded=0;whiteSpace=wrap;html=1;" parent="1" vertex="1">
                    <mxGeometry x="110" y="360.30999999999995" width="312" height="40" as="geometry"/>
                </mxCell>
                <mxCell id="8" value="showBodyStart" style="rounded=0;whiteSpace=wrap;html=1;" parent="1" vertex="1">
                    <mxGeometry x="108" y="670" width="312" height="40" as="geometry"/>
                </mxCell>
                <mxCell id="9" value="showHeader" style="rounded=0;whiteSpace=wrap;html=1;" parent="1" vertex="1">
                    <mxGeometry x="108" y="710" width="312" height="40" as="geometry"/>
                </mxCell>
                <mxCell id="10" value="showContent" style="rounded=0;whiteSpace=wrap;html=1;" parent="1" vertex="1">
                    <mxGeometry x="108" y="750" width="312" height="40" as="geometry"/>
                </mxCell>
                <mxCell id="11" value="PSD: showResponsePage" style="text;html=1;strokeColor=none;fillColor=none;align=center;verticalAlign=middle;whiteSpace=wrap;rounded=0;" parent="1" vertex="1">
                    <mxGeometry x="110" y="210" width="150" height="30" as="geometry"/>
                </mxCell>
                <mxCell id="12" value="PSD: showBodySection" style="text;html=1;strokeColor=none;fillColor=none;align=center;verticalAlign=middle;whiteSpace=wrap;rounded=0;" parent="1" vertex="1">
                    <mxGeometry x="108" y="640" width="140" height="30" as="geometry"/>
                </mxCell>
                <mxCell id="13" value="&amp;nbsp;TRUE&lt;span style=&quot;white-space: pre;&quot;&gt;&#9;&lt;/span&gt;&lt;span style=&quot;white-space: pre;&quot;&gt;&#9;&lt;/span&gt;&lt;span style=&quot;white-space: pre;&quot;&gt;&#9;&lt;/span&gt;&lt;span style=&quot;white-space: pre;&quot;&gt;&#9;&lt;/span&gt;&lt;span style=&quot;white-space: pre;&quot;&gt;&#9;&lt;/span&gt;&lt;span style=&quot;white-space: pre;&quot;&gt;&#9;&lt;/span&gt;&lt;span style=&quot;white-space: pre;&quot;&gt;&#9;&lt;/span&gt;&lt;span style=&quot;white-space: pre;&quot;&gt;&#9;&lt;/span&gt;&lt;span style=&quot;white-space: pre;&quot;&gt;&#9;&lt;/span&gt;&lt;span style=&quot;white-space: pre;&quot;&gt;&#9;&lt;/span&gt;&lt;span style=&quot;white-space: pre;&quot;&gt;&#9;&lt;/span&gt;&lt;span style=&quot;white-space: pre;&quot;&gt;&#9;&lt;/span&gt;&lt;span style=&quot;white-space: pre;&quot;&gt;&#9;&lt;/span&gt;&lt;span style=&quot;white-space: pre;&quot;&gt;&#9;&lt;/span&gt;&lt;span style=&quot;white-space: pre;&quot;&gt;&#9;&lt;/span&gt;&lt;span style=&quot;white-space: pre;&quot;&gt;&#9;&lt;/span&gt;&lt;span style=&quot;white-space: pre;&quot;&gt;&#9;&lt;/span&gt;&lt;span style=&quot;white-space: pre;&quot;&gt;&#9;&lt;/span&gt;&lt;span style=&quot;white-space: pre;&quot;&gt;&#9;&lt;/span&gt;&lt;span style=&quot;white-space: pre;&quot;&gt;&#9;&lt;/span&gt;&lt;span style=&quot;white-space: pre;&quot;&gt;&#9;&lt;/span&gt;FALSE" style="rounded=0;whiteSpace=wrap;html=1;align=left;" parent="1" vertex="1">
                    <mxGeometry x="108" y="-22.5" width="635" height="140" as="geometry"/>
                </mxCell>
                <mxCell id="14" value="&lt;div style=&quot;&quot;&gt;request_type == 'GET' ?&lt;/div&gt;" style="triangle;whiteSpace=wrap;html=1;rotation=90;align=center;verticalAlign=middle;horizontal=0;" parent="1" vertex="1">
                    <mxGeometry x="357.07" y="-270" width="136.87" height="635" as="geometry"/>
                </mxCell>
                <mxCell id="15" value="getRequestedPage" style="rounded=0;whiteSpace=wrap;html=1;" parent="1" vertex="1">
                    <mxGeometry x="108" y="-220" width="312" height="40" as="geometry"/>
                </mxCell>
                <mxCell id="16" value="showResponsePage" style="rounded=0;whiteSpace=wrap;html=1;" parent="1" vertex="1">
                    <mxGeometry x="108" y="-180" width="312" height="40" as="geometry"/>
                </mxCell>
                <mxCell id="17" value="PSD: showContent" style="text;html=1;strokeColor=none;fillColor=none;align=center;verticalAlign=middle;whiteSpace=wrap;rounded=0;" parent="1" vertex="1">
                    <mxGeometry x="108" y="900" width="110" height="30" as="geometry"/>
                </mxCell>
                <mxCell id="18" value="&lt;span style=&quot;white-space: pre;&quot;&gt;&#9;&lt;/span&gt;home&lt;span style=&quot;white-space: pre;&quot;&gt;&#9;&lt;/span&gt;&lt;span style=&quot;white-space: pre;&quot;&gt;&#9;&lt;span style=&quot;white-space: pre;&quot;&gt;&#9;&lt;span style=&quot;white-space: pre;&quot;&gt;&#9;&lt;/span&gt;&lt;/span&gt;&lt;/span&gt;about&lt;span style=&quot;white-space: pre;&quot;&gt;&#9;&lt;/span&gt;&lt;span style=&quot;white-space: pre;&quot;&gt;&#9;&lt;/span&gt;&lt;span style=&quot;white-space: pre;&quot;&gt;&#9;&lt;/span&gt;&amp;nbsp; &amp;nbsp; &amp;nbsp;&lt;span style=&quot;white-space: pre;&quot;&gt;&#9;&lt;/span&gt;contact&amp;nbsp; &amp;nbsp; &amp;nbsp; &amp;nbsp;&lt;span style=&quot;white-space: pre;&quot;&gt;&#9;&lt;span style=&quot;white-space: pre;&quot;&gt;&#9;&lt;/span&gt;&lt;span style=&quot;white-space: pre;&quot;&gt;&#9;&lt;/span&gt;&lt;/span&gt;anders" style="rounded=0;whiteSpace=wrap;html=1;verticalAlign=bottom;align=left;" parent="1" vertex="1">
                    <mxGeometry x="108" y="930" width="510" height="90" as="geometry"/>
                </mxCell>
                <mxCell id="19" value="showHomeContent" style="rounded=0;whiteSpace=wrap;html=1;" parent="1" vertex="1">
                    <mxGeometry x="108" y="1020" width="130" height="60" as="geometry"/>
                </mxCell>
                <mxCell id="20" value="showAboutContent" style="rounded=0;whiteSpace=wrap;html=1;" parent="1" vertex="1">
                    <mxGeometry x="228" y="1020" width="130" height="60" as="geometry"/>
                </mxCell>
                <mxCell id="21" value="showContactContent" style="rounded=0;whiteSpace=wrap;html=1;" parent="1" vertex="1">
                    <mxGeometry x="358" y="1020" width="130" height="60" as="geometry"/>
                </mxCell>
                <mxCell id="22" value="switch(page)" style="triangle;whiteSpace=wrap;html=1;rotation=90;horizontal=0;" parent="1" vertex="1">
                    <mxGeometry x="322.07" y="725.94" width="82.5" height="490.63" as="geometry"/>
                </mxCell>
                <mxCell id="23" value="pageNotFound" style="rounded=0;whiteSpace=wrap;html=1;" parent="1" vertex="1">
                    <mxGeometry x="488" y="1020" width="130" height="60" as="geometry"/>
                </mxCell>
                <mxCell id="24" value="request_type = getRequestType" style="rounded=0;whiteSpace=wrap;html=1;" parent="1" vertex="1">
                    <mxGeometry x="108" y="-82" width="630" height="60" as="geometry"/>
                </mxCell>
                <mxCell id="25" value="requested_page = getPageFromPost" style="rounded=0;whiteSpace=wrap;html=1;" parent="1" vertex="1">
                    <mxGeometry x="431" y="117.5" width="312" height="40" as="geometry"/>
                </mxCell>
                <mxCell id="26" value="showFooter" style="rounded=0;whiteSpace=wrap;html=1;" parent="1" vertex="1">
                    <mxGeometry x="108" y="790" width="312" height="40" as="geometry"/>
                </mxCell>
                <mxCell id="27" value="showBodyEnd" style="rounded=0;whiteSpace=wrap;html=1;" parent="1" vertex="1">
                    <mxGeometry x="108" y="830" width="312" height="40" as="geometry"/>
                </mxCell>
                <mxCell id="28" value="PSD: getRequestedPage" style="text;html=1;strokeColor=none;fillColor=none;align=center;verticalAlign=middle;whiteSpace=wrap;rounded=0;" parent="1" vertex="1">
                    <mxGeometry x="110" y="-112" width="140" height="30" as="geometry"/>
                </mxCell>
                <mxCell id="29" value="showHeadStart" style="rounded=0;whiteSpace=wrap;html=1;" parent="1" vertex="1">
                    <mxGeometry x="108" y="440" width="312" height="40" as="geometry"/>
                </mxCell>
                <mxCell id="30" value="showMetaCharset" style="rounded=0;whiteSpace=wrap;html=1;" parent="1" vertex="1">
                    <mxGeometry x="108" y="480" width="312" height="40" as="geometry"/>
                </mxCell>
                <mxCell id="31" value="showTitle" style="rounded=0;whiteSpace=wrap;html=1;" parent="1" vertex="1">
                    <mxGeometry x="108" y="520" width="312" height="40" as="geometry"/>
                </mxCell>
                <mxCell id="32" value="PSD: showHeadSection" style="text;html=1;strokeColor=none;fillColor=none;align=center;verticalAlign=middle;whiteSpace=wrap;rounded=0;" parent="1" vertex="1">
                    <mxGeometry x="108" y="410" width="140" height="30" as="geometry"/>
                </mxCell>
                <mxCell id="33" value="showStyleSheet" style="rounded=0;whiteSpace=wrap;html=1;" parent="1" vertex="1">
                    <mxGeometry x="108" y="560" width="312" height="40" as="geometry"/>
                </mxCell>
                <mxCell id="34" value="showHeadEnd" style="rounded=0;whiteSpace=wrap;html=1;" parent="1" vertex="1">
                    <mxGeometry x="108" y="600" width="312" height="40" as="geometry"/>
                </mxCell>
                <mxCell id="35" value="PSD: showRegisterForm" style="text;html=1;strokeColor=none;fillColor=none;align=center;verticalAlign=middle;whiteSpace=wrap;rounded=0;" parent="1" vertex="1">
                    <mxGeometry x="820" y="-90" width="146" height="30" as="geometry"/>
                </mxCell>
                <mxCell id="40" value="&amp;nbsp;TRUE&lt;span style=&quot;white-space: pre;&quot;&gt;&#9;&lt;/span&gt;&lt;span style=&quot;white-space: pre;&quot;&gt;&#9;&lt;/span&gt;&lt;span style=&quot;white-space: pre;&quot;&gt;&#9;&lt;/span&gt;&lt;span style=&quot;white-space: pre;&quot;&gt;&#9;&lt;/span&gt;&lt;span style=&quot;white-space: pre;&quot;&gt;&#9;&lt;/span&gt;&lt;span style=&quot;white-space: pre;&quot;&gt;&#9;&lt;/span&gt;&lt;span style=&quot;white-space: pre;&quot;&gt;&#9;&lt;/span&gt;&lt;span style=&quot;white-space: pre;&quot;&gt;&#9;&lt;/span&gt;&lt;span style=&quot;white-space: pre;&quot;&gt;&#9;&lt;/span&gt;&lt;span style=&quot;white-space: pre;&quot;&gt;&#9;&lt;/span&gt;&lt;span style=&quot;white-space: pre;&quot;&gt;&#9;&lt;/span&gt;&lt;span style=&quot;white-space: pre;&quot;&gt;&#9;&lt;/span&gt;&lt;span style=&quot;white-space: pre;&quot;&gt;&#9;&lt;/span&gt;&lt;span style=&quot;white-space: pre;&quot;&gt;&#9;&lt;/span&gt;&lt;span style=&quot;white-space: pre;&quot;&gt;&#9;&lt;/span&gt;&lt;span style=&quot;white-space: pre;&quot;&gt;&#9;&lt;/span&gt;&lt;span style=&quot;white-space: pre;&quot;&gt;&#9;&lt;/span&gt;&lt;span style=&quot;white-space: pre;&quot;&gt;&#9;&lt;/span&gt;&lt;span style=&quot;white-space: pre;&quot;&gt;&#9;&lt;/span&gt;&lt;span style=&quot;white-space: pre;&quot;&gt;&#9;&lt;/span&gt;&lt;span style=&quot;white-space: pre;&quot;&gt;&#9;&lt;/span&gt;FALSE" style="rounded=0;whiteSpace=wrap;html=1;align=left;verticalAlign=bottom;" parent="1" vertex="1">
                    <mxGeometry x="821.01" y="37.5" width="635" height="140" as="geometry"/>
                </mxCell>
                <mxCell id="41" value="empty(email)" style="triangle;whiteSpace=wrap;html=1;rotation=90;align=center;verticalAlign=middle;horizontal=0;" parent="1" vertex="1">
                    <mxGeometry x="1070.08" y="-210" width="136.87" height="635" as="geometry"/>
                </mxCell>
                <mxCell id="45" value="" style="edgeStyle=none;html=1;" parent="1" source="42" target="44" edge="1">
                    <mxGeometry relative="1" as="geometry"/>
                </mxCell>
                <mxCell id="42" value="$emailErr = 'Email is required'" style="rounded=0;whiteSpace=wrap;html=1;" parent="1" vertex="1">
                    <mxGeometry x="821.51" y="178" width="317" height="60" as="geometry"/>
                </mxCell>
                <mxCell id="43" value="TRUE&lt;span style=&quot;white-space: pre;&quot;&gt;&#9;&lt;/span&gt;&lt;span style=&quot;white-space: pre;&quot;&gt;&#9;&lt;/span&gt;&lt;span style=&quot;white-space: pre;&quot;&gt;&#9;&lt;/span&gt;&lt;span style=&quot;white-space: pre;&quot;&gt;&#9;&lt;/span&gt;&lt;span style=&quot;white-space: pre;&quot;&gt;&#9;&lt;/span&gt;&lt;span style=&quot;white-space: pre;&quot;&gt;&#9;&lt;/span&gt;&lt;span style=&quot;white-space: pre;&quot;&gt;&#9;&lt;/span&gt;&lt;span style=&quot;white-space: pre;&quot;&gt;&#9;&lt;/span&gt;&lt;span style=&quot;white-space: pre;&quot;&gt;&#9;&lt;/span&gt;FALSE" style="rounded=0;whiteSpace=wrap;html=1;align=left;verticalAlign=bottom;" parent="1" vertex="1">
                    <mxGeometry x="1141.01" y="178" width="317" height="60" as="geometry"/>
                </mxCell>
                <mxCell id="44" value="email valid?" style="triangle;whiteSpace=wrap;html=1;rotation=90;horizontal=0;" parent="1" vertex="1">
                    <mxGeometry x="1269.51" y="52.5" width="60" height="311" as="geometry"/>
                </mxCell>
                <mxCell id="46" value="$email = $_POST['email']" style="rounded=0;whiteSpace=wrap;html=1;align=center;" parent="1" vertex="1">
                    <mxGeometry x="1141.01" y="238" width="156" height="70" as="geometry"/>
                </mxCell>
                <mxCell id="47" value="$emailErr = 'Only letter/whitspaces allowed'" style="rounded=0;whiteSpace=wrap;html=1;align=center;" parent="1" vertex="1">
                    <mxGeometry x="1302.01" y="238" width="156" height="70" as="geometry"/>
                </mxCell>
                <mxCell id="49" value="-" style="rounded=0;whiteSpace=wrap;html=1;align=center;" parent="1" vertex="1">
                    <mxGeometry x="821.01" y="238" width="316" height="70" as="geometry"/>
                </mxCell>
                <mxCell id="50" value="TRUE&lt;span style=&quot;white-space: pre;&quot;&gt;&#9;&lt;/span&gt;&lt;span style=&quot;white-space: pre;&quot;&gt;&#9;&lt;/span&gt;&lt;span style=&quot;white-space: pre;&quot;&gt;&#9;&lt;/span&gt;&lt;span style=&quot;white-space: pre;&quot;&gt;&#9;&lt;/span&gt;&lt;span style=&quot;white-space: pre;&quot;&gt;&#9;&lt;/span&gt;&lt;span style=&quot;white-space: pre;&quot;&gt;&#9;&lt;/span&gt;&lt;span style=&quot;white-space: pre;&quot;&gt;&#9;&lt;/span&gt;&lt;span style=&quot;white-space: pre;&quot;&gt;&#9;&lt;/span&gt;&lt;span style=&quot;white-space: pre;&quot;&gt;&#9;&lt;/span&gt;&lt;span style=&quot;white-space: pre;&quot;&gt;&#9;&lt;/span&gt;&lt;span style=&quot;white-space: pre;&quot;&gt;&#9;&lt;/span&gt;&lt;span style=&quot;white-space: pre;&quot;&gt;&#9;&lt;/span&gt;&lt;span style=&quot;white-space: pre;&quot;&gt;&#9;&lt;/span&gt;&lt;span style=&quot;white-space: pre;&quot;&gt;&#9;&lt;/span&gt;&lt;span style=&quot;white-space: pre;&quot;&gt;&#9;&lt;/span&gt;&lt;span style=&quot;white-space: pre;&quot;&gt;&#9;&lt;/span&gt;&lt;span style=&quot;white-space: pre;&quot;&gt;&#9;&lt;/span&gt;&lt;span style=&quot;white-space: pre;&quot;&gt;&#9;&lt;/span&gt;FALSE" style="rounded=0;whiteSpace=wrap;html=1;verticalAlign=bottom;horizontal=1;" parent="1" vertex="1">
                    <mxGeometry x="821.01" y="308" width="636" height="112" as="geometry"/>
                </mxCell>
                <mxCell id="51" value="empty(name)" style="triangle;whiteSpace=wrap;html=1;rotation=90;horizontal=0;" parent="1" vertex="1">
                    <mxGeometry x="1082.8799999999999" y="49.5" width="110.25" height="629" as="geometry"/>
                </mxCell>
                <mxCell id="52" value="$nameErr = &quot;Name is required&quot;" style="rounded=0;whiteSpace=wrap;html=1;" parent="1" vertex="1">
                    <mxGeometry x="821.01" y="420" width="316" height="60" as="geometry"/>
                </mxCell>
                <mxCell id="53" value="$name = $_POST['name']" style="rounded=0;whiteSpace=wrap;html=1;" parent="1" vertex="1">
                    <mxGeometry x="1136.51" y="420" width="320.5" height="60" as="geometry"/>
                </mxCell>
                <mxCell id="54" value="TRUE&lt;span style=&quot;white-space: pre;&quot;&gt;&#9;&lt;/span&gt;&lt;span style=&quot;white-space: pre;&quot;&gt;&#9;&lt;/span&gt;&lt;span style=&quot;white-space: pre;&quot;&gt;&#9;&lt;/span&gt;&lt;span style=&quot;white-space: pre;&quot;&gt;&#9;&lt;/span&gt;&lt;span style=&quot;white-space: pre;&quot;&gt;&#9;&lt;/span&gt;&lt;span style=&quot;white-space: pre;&quot;&gt;&#9;&lt;/span&gt;&lt;span style=&quot;white-space: pre;&quot;&gt;&#9;&lt;/span&gt;&lt;span style=&quot;white-space: pre;&quot;&gt;&#9;&lt;/span&gt;&lt;span style=&quot;white-space: pre;&quot;&gt;&#9;&lt;/span&gt;&lt;span style=&quot;white-space: pre;&quot;&gt;&#9;&lt;/span&gt;&lt;span style=&quot;white-space: pre;&quot;&gt;&#9;&lt;/span&gt;&lt;span style=&quot;white-space: pre;&quot;&gt;&#9;&lt;/span&gt;&lt;span style=&quot;white-space: pre;&quot;&gt;&#9;&lt;/span&gt;&lt;span style=&quot;white-space: pre;&quot;&gt;&#9;&lt;/span&gt;&lt;span style=&quot;white-space: pre;&quot;&gt;&#9;&lt;/span&gt;&lt;span style=&quot;white-space: pre;&quot;&gt;&#9;&lt;/span&gt;&lt;span style=&quot;white-space: pre;&quot;&gt;&#9;&lt;/span&gt;&lt;span style=&quot;white-space: pre;&quot;&gt;&#9;&lt;/span&gt;FALSE" style="rounded=0;whiteSpace=wrap;html=1;verticalAlign=bottom;horizontal=1;" parent="1" vertex="1">
                    <mxGeometry x="820" y="479.5" width="636" height="112" as="geometry"/>
                </mxCell>
                <mxCell id="55" value="empty(password)" style="triangle;whiteSpace=wrap;html=1;rotation=90;horizontal=0;" parent="1" vertex="1">
                    <mxGeometry x="1081.87" y="221" width="110.25" height="629" as="geometry"/>
                </mxCell>
                <mxCell id="56" value="$passErr = &quot;Password is required&quot;" style="rounded=0;whiteSpace=wrap;html=1;" parent="1" vertex="1">
                    <mxGeometry x="820" y="591.5" width="316" height="60" as="geometry"/>
                </mxCell>
                <mxCell id="58" value="TRUE&lt;span style=&quot;white-space: pre;&quot;&gt;&#9;&lt;/span&gt;&lt;span style=&quot;white-space: pre;&quot;&gt;&#9;&lt;/span&gt;&lt;span style=&quot;white-space: pre;&quot;&gt;&#9;&lt;/span&gt;&lt;span style=&quot;white-space: pre;&quot;&gt;&#9;&lt;/span&gt;&lt;span style=&quot;white-space: pre;&quot;&gt;&#9;&lt;/span&gt;&lt;span style=&quot;white-space: pre;&quot;&gt;&#9;&lt;/span&gt;&lt;span style=&quot;white-space: pre;&quot;&gt;&#9;&lt;/span&gt;&lt;span style=&quot;white-space: pre;&quot;&gt;&#9;&lt;/span&gt;&lt;span style=&quot;white-space: pre;&quot;&gt;&#9;&lt;/span&gt;FALSE" style="rounded=0;whiteSpace=wrap;html=1;verticalAlign=bottom;horizontal=1;" parent="1" vertex="1">
                    <mxGeometry x="820" y="646.5" width="640" height="112" as="geometry"/>
                </mxCell>
                <mxCell id="59" value="empty(password_repeat)&amp;nbsp;" style="triangle;whiteSpace=wrap;html=1;rotation=90;horizontal=0;align=center;verticalAlign=middle;fontStyle=0;fontSize=12;spacingBottom=0;" parent="1" vertex="1">
                    <mxGeometry x="1084.88" y="385" width="110.25" height="635" as="geometry"/>
                </mxCell>
                <mxCell id="60" value="$pass_repeatErr = &quot;Repeat your password&quot;" style="rounded=0;whiteSpace=wrap;html=1;" parent="1" vertex="1">
                    <mxGeometry x="820" y="758.5" width="320" height="161.5" as="geometry"/>
                </mxCell>
                <mxCell id="62" value="$password = $_POST['password']" style="rounded=0;whiteSpace=wrap;html=1;fontSize=12;" parent="1" vertex="1">
                    <mxGeometry x="1140" y="591.5" width="317.01" height="58.5" as="geometry"/>
                </mxCell>
                <mxCell id="63" value="TRUE&lt;span style=&quot;white-space: pre;&quot;&gt;&#9;&lt;/span&gt;&lt;span style=&quot;white-space: pre;&quot;&gt;&#9;&lt;/span&gt;&lt;span style=&quot;white-space: pre;&quot;&gt;&#9;&lt;/span&gt;&lt;span style=&quot;white-space: pre;&quot;&gt;&#9;&lt;/span&gt;&lt;span style=&quot;white-space: pre;&quot;&gt;&#9;&lt;/span&gt;&lt;span style=&quot;white-space: pre;&quot;&gt;&#9;&lt;/span&gt;&lt;span style=&quot;white-space: pre;&quot;&gt;&#9;&lt;/span&gt;&lt;span style=&quot;white-space: pre;&quot;&gt;&#9;&lt;/span&gt;&lt;span style=&quot;white-space: pre;&quot;&gt;&#9;&lt;/span&gt;&lt;span style=&quot;white-space: pre;&quot;&gt;&#9;&lt;/span&gt;&lt;span style=&quot;white-space: pre;&quot;&gt;&#9;&lt;/span&gt;&lt;span style=&quot;white-space: pre;&quot;&gt;&#9;&lt;/span&gt;&lt;span style=&quot;white-space: pre;&quot;&gt;&#9;&lt;/span&gt;&lt;span style=&quot;white-space: pre;&quot;&gt;&#9;&lt;/span&gt;&lt;span style=&quot;white-space: pre;&quot;&gt;&#9;&lt;/span&gt;&lt;span style=&quot;white-space: pre;&quot;&gt;&#9;&lt;/span&gt;&lt;span style=&quot;white-space: pre;&quot;&gt;&#9;&lt;/span&gt;&lt;span style=&quot;white-space: pre;&quot;&gt;&#9;&lt;/span&gt;FALSE" style="rounded=0;whiteSpace=wrap;html=1;verticalAlign=bottom;horizontal=1;" parent="1" vertex="1">
                    <mxGeometry x="820" y="919" width="641.01" height="112" as="geometry"/>
                </mxCell>
                <mxCell id="64" value="$array['errors'] empty ?" style="triangle;whiteSpace=wrap;html=1;rotation=90;horizontal=0;" parent="1" vertex="1">
                    <mxGeometry x="1087.12" y="655.25" width="110.25" height="639.5" as="geometry"/>
                </mxCell>
                <mxCell id="65" value="showLoginPage" style="rounded=0;whiteSpace=wrap;html=1;" parent="1" vertex="1">
                    <mxGeometry x="820" y="1031" width="320" height="60" as="geometry"/>
                </mxCell>
                <mxCell id="66" value="showRegistrationForm with errors" style="rounded=0;whiteSpace=wrap;html=1;" parent="1" vertex="1">
                    <mxGeometry x="1140.51" y="1031" width="320.5" height="60" as="geometry"/>
                </mxCell>
                <mxCell id="67" value="$email = $name = $password = password_repeat = &quot;&quot;&lt;br&gt;$emailErr = $nameErr = $passwordErr =&amp;nbsp;&lt;br&gt;" style="rounded=0;whiteSpace=wrap;html=1;fontSize=12;align=left;" parent="1" vertex="1">
                    <mxGeometry x="821.51" y="-60" width="638.49" height="97.5" as="geometry"/>
                </mxCell>
                <mxCell id="68" value="&amp;nbsp; &amp;nbsp;TRUE&lt;span style=&quot;white-space: pre;&quot;&gt;&#9;&lt;/span&gt;&lt;span style=&quot;white-space: pre;&quot;&gt;&#9;&lt;/span&gt;&lt;span style=&quot;white-space: pre;&quot;&gt;&#9;&lt;/span&gt;&lt;span style=&quot;white-space: pre;&quot;&gt;&#9;&lt;/span&gt;&lt;span style=&quot;white-space: pre;&quot;&gt;&#9;&lt;/span&gt;&lt;span style=&quot;white-space: pre;&quot;&gt;&#9;&lt;/span&gt;&lt;span style=&quot;white-space: pre;&quot;&gt;&#9;&lt;/span&gt;&lt;span style=&quot;white-space: pre;&quot;&gt;&#9;&lt;/span&gt;&lt;span style=&quot;white-space: pre;&quot;&gt;&#9;&lt;/span&gt;FALSE" style="rounded=0;whiteSpace=wrap;html=1;align=left;fontSize=12;verticalAlign=bottom;" parent="1" vertex="1">
                    <mxGeometry x="1141.01" y="757.97" width="320" height="102.5" as="geometry"/>
                </mxCell>
                <mxCell id="69" value="&lt;div style=&quot;&quot;&gt;$password == $password_repeat&lt;/div&gt;" style="triangle;whiteSpace=wrap;html=1;rotation=90;align=center;verticalAlign=middle;fontSize=12;horizontal=0;spacingBottom=30;" parent="1" vertex="1">
                    <mxGeometry x="1248.05" y="652.5" width="100.93" height="315" as="geometry"/>
                </mxCell>
                <mxCell id="70" value="$password = $_POST['pasword']" style="rounded=0;whiteSpace=wrap;html=1;fontSize=12;" parent="1" vertex="1">
                    <mxGeometry x="1141.01" y="860.47" width="159.5" height="60" as="geometry"/>
                </mxCell>
                <mxCell id="71" value="$pass_repeatErr =&amp;nbsp;&quot;Passwords don't match&quot;&amp;nbsp;&amp;amp;&amp;amp; $passErr = &quot;Passwords don't match&quot;" style="rounded=0;whiteSpace=wrap;html=1;fontSize=12;" parent="1" vertex="1">
                    <mxGeometry x="1299.5" y="860.47" width="161.51" height="60" as="geometry"/>
                </mxCell>
                <mxCell id="73" value="PSD: showLoginForm" style="text;html=1;strokeColor=none;fillColor=none;align=center;verticalAlign=middle;whiteSpace=wrap;rounded=0;" parent="1" vertex="1">
                    <mxGeometry x="800" y="-908.5" width="146" height="30" as="geometry"/>
                </mxCell>
                <mxCell id="74" value="&amp;nbsp;TRUE&lt;span style=&quot;white-space: pre;&quot;&gt;&#9;&lt;/span&gt;&lt;span style=&quot;white-space: pre;&quot;&gt;&#9;&lt;/span&gt;&lt;span style=&quot;white-space: pre;&quot;&gt;&#9;&lt;/span&gt;&lt;span style=&quot;white-space: pre;&quot;&gt;&#9;&lt;/span&gt;&lt;span style=&quot;white-space: pre;&quot;&gt;&#9;&lt;/span&gt;&lt;span style=&quot;white-space: pre;&quot;&gt;&#9;&lt;/span&gt;&lt;span style=&quot;white-space: pre;&quot;&gt;&#9;&lt;/span&gt;&lt;span style=&quot;white-space: pre;&quot;&gt;&#9;&lt;/span&gt;&lt;span style=&quot;white-space: pre;&quot;&gt;&#9;&lt;/span&gt;&lt;span style=&quot;white-space: pre;&quot;&gt;&#9;&lt;/span&gt;&lt;span style=&quot;white-space: pre;&quot;&gt;&#9;&lt;/span&gt;&lt;span style=&quot;white-space: pre;&quot;&gt;&#9;&lt;/span&gt;&lt;span style=&quot;white-space: pre;&quot;&gt;&#9;&lt;/span&gt;&lt;span style=&quot;white-space: pre;&quot;&gt;&#9;&lt;/span&gt;&lt;span style=&quot;white-space: pre;&quot;&gt;&#9;&lt;/span&gt;&lt;span style=&quot;white-space: pre;&quot;&gt;&#9;&lt;/span&gt;&lt;span style=&quot;white-space: pre;&quot;&gt;&#9;&lt;/span&gt;&lt;span style=&quot;white-space: pre;&quot;&gt;&#9;&lt;/span&gt;&lt;span style=&quot;white-space: pre;&quot;&gt;&#9;&lt;/span&gt;&lt;span style=&quot;white-space: pre;&quot;&gt;&#9;&lt;/span&gt;&lt;span style=&quot;white-space: pre;&quot;&gt;&#9;&lt;/span&gt;FALSE" style="rounded=0;whiteSpace=wrap;html=1;align=left;verticalAlign=bottom;" parent="1" vertex="1">
                    <mxGeometry x="801.01" y="-781" width="635" height="140" as="geometry"/>
                </mxCell>
                <mxCell id="75" value="empty(email)" style="triangle;whiteSpace=wrap;html=1;rotation=90;align=center;verticalAlign=middle;horizontal=0;" parent="1" vertex="1">
                    <mxGeometry x="1050.08" y="-1028.5" width="136.87" height="635" as="geometry"/>
                </mxCell>
                <mxCell id="76" value="" style="edgeStyle=none;html=1;" parent="1" source="77" target="79" edge="1">
                    <mxGeometry relative="1" as="geometry"/>
                </mxCell>
                <mxCell id="77" value="$emailErr = 'Email is required'" style="rounded=0;whiteSpace=wrap;html=1;" parent="1" vertex="1">
                    <mxGeometry x="801.51" y="-640.5" width="317" height="60" as="geometry"/>
                </mxCell>
                <mxCell id="78" value="TRUE&lt;span style=&quot;white-space: pre;&quot;&gt;&#9;&lt;/span&gt;&lt;span style=&quot;white-space: pre;&quot;&gt;&#9;&lt;/span&gt;&lt;span style=&quot;white-space: pre;&quot;&gt;&#9;&lt;/span&gt;&lt;span style=&quot;white-space: pre;&quot;&gt;&#9;&lt;/span&gt;&lt;span style=&quot;white-space: pre;&quot;&gt;&#9;&lt;/span&gt;&lt;span style=&quot;white-space: pre;&quot;&gt;&#9;&lt;/span&gt;&lt;span style=&quot;white-space: pre;&quot;&gt;&#9;&lt;/span&gt;&lt;span style=&quot;white-space: pre;&quot;&gt;&#9;&lt;/span&gt;&lt;span style=&quot;white-space: pre;&quot;&gt;&#9;&lt;/span&gt;FALSE" style="rounded=0;whiteSpace=wrap;html=1;align=left;verticalAlign=bottom;" parent="1" vertex="1">
                    <mxGeometry x="1121.01" y="-640.5" width="317" height="60" as="geometry"/>
                </mxCell>
                <mxCell id="79" value="bestaat email in users.txt" style="triangle;whiteSpace=wrap;html=1;rotation=90;horizontal=0;" parent="1" vertex="1">
                    <mxGeometry x="1249.51" y="-766" width="60" height="311" as="geometry"/>
                </mxCell>
                <mxCell id="80" value="$email = $_POST['email']" style="rounded=0;whiteSpace=wrap;html=1;align=center;" parent="1" vertex="1">
                    <mxGeometry x="1121.01" y="-580.5" width="156" height="70" as="geometry"/>
                </mxCell>
                <mxCell id="81" value="$emailErr = 'Only letter/whitspaces allowed'" style="rounded=0;whiteSpace=wrap;html=1;align=center;" parent="1" vertex="1">
                    <mxGeometry x="1282.01" y="-580.5" width="156" height="70" as="geometry"/>
                </mxCell>
                <mxCell id="82" value="-" style="rounded=0;whiteSpace=wrap;html=1;align=center;" parent="1" vertex="1">
                    <mxGeometry x="801.01" y="-580.5" width="316" height="70" as="geometry"/>
                </mxCell>
                <mxCell id="83" value="TRUE&lt;span style=&quot;white-space: pre;&quot;&gt;&#9;&lt;/span&gt;&lt;span style=&quot;white-space: pre;&quot;&gt;&#9;&lt;/span&gt;&lt;span style=&quot;white-space: pre;&quot;&gt;&#9;&lt;/span&gt;&lt;span style=&quot;white-space: pre;&quot;&gt;&#9;&lt;/span&gt;&lt;span style=&quot;white-space: pre;&quot;&gt;&#9;&lt;/span&gt;&lt;span style=&quot;white-space: pre;&quot;&gt;&#9;&lt;/span&gt;&lt;span style=&quot;white-space: pre;&quot;&gt;&#9;&lt;/span&gt;&lt;span style=&quot;white-space: pre;&quot;&gt;&#9;&lt;/span&gt;&lt;span style=&quot;white-space: pre;&quot;&gt;&#9;&lt;/span&gt;&lt;span style=&quot;white-space: pre;&quot;&gt;&#9;&lt;/span&gt;&lt;span style=&quot;white-space: pre;&quot;&gt;&#9;&lt;/span&gt;&lt;span style=&quot;white-space: pre;&quot;&gt;&#9;&lt;/span&gt;&lt;span style=&quot;white-space: pre;&quot;&gt;&#9;&lt;/span&gt;&lt;span style=&quot;white-space: pre;&quot;&gt;&#9;&lt;/span&gt;&lt;span style=&quot;white-space: pre;&quot;&gt;&#9;&lt;/span&gt;&lt;span style=&quot;white-space: pre;&quot;&gt;&#9;&lt;/span&gt;&lt;span style=&quot;white-space: pre;&quot;&gt;&#9;&lt;/span&gt;&lt;span style=&quot;white-space: pre;&quot;&gt;&#9;&lt;/span&gt;FALSE" style="rounded=0;whiteSpace=wrap;html=1;verticalAlign=bottom;horizontal=1;" parent="1" vertex="1">
                    <mxGeometry x="801.01" y="-510.5" width="636" height="112" as="geometry"/>
                </mxCell>
                <mxCell id="84" value="empty(password)" style="triangle;whiteSpace=wrap;html=1;rotation=90;horizontal=0;" parent="1" vertex="1">
                    <mxGeometry x="1062.8799999999999" y="-769" width="110.25" height="629" as="geometry"/>
                </mxCell>
                <mxCell id="85" value="$nameErr = &quot;Name is required&quot;" style="rounded=0;whiteSpace=wrap;html=1;" parent="1" vertex="1">
                    <mxGeometry x="801.01" y="-398.5" width="316" height="128.5" as="geometry"/>
                </mxCell>
                <mxCell id="87" value="$email = $password =&amp;nbsp; &quot;&quot;&lt;br&gt;$emailErr = $passwordErr = &quot;&quot;&amp;nbsp;" style="rounded=0;whiteSpace=wrap;html=1;fontSize=12;align=left;" parent="1" vertex="1">
                    <mxGeometry x="801.51" y="-878.5" width="638.49" height="97.5" as="geometry"/>
                </mxCell>
                <mxCell id="88" value="" style="edgeStyle=none;html=1;" parent="1" target="90" edge="1">
                    <mxGeometry relative="1" as="geometry">
                        <mxPoint x="1115" y="-368.5" as="sourcePoint"/>
                    </mxGeometry>
                </mxCell>
                <mxCell id="89" value="TRUE&lt;span style=&quot;white-space: pre;&quot;&gt;&#9;&lt;/span&gt;&lt;span style=&quot;white-space: pre;&quot;&gt;&#9;&lt;/span&gt;&lt;span style=&quot;white-space: pre;&quot;&gt;&#9;&lt;/span&gt;&lt;span style=&quot;white-space: pre;&quot;&gt;&#9;&lt;/span&gt;&lt;span style=&quot;white-space: pre;&quot;&gt;&#9;&lt;/span&gt;&lt;span style=&quot;white-space: pre;&quot;&gt;&#9;&lt;/span&gt;&lt;span style=&quot;white-space: pre;&quot;&gt;&#9;&lt;/span&gt;&lt;span style=&quot;white-space: pre;&quot;&gt;&#9;&lt;/span&gt;&lt;span style=&quot;white-space: pre;&quot;&gt;&#9;&lt;/span&gt;FALSE" style="rounded=0;whiteSpace=wrap;html=1;align=left;verticalAlign=bottom;" parent="1" vertex="1">
                    <mxGeometry x="1117.5" y="-398.5" width="317" height="60" as="geometry"/>
                </mxCell>
                <mxCell id="90" value="email valid?" style="triangle;whiteSpace=wrap;html=1;rotation=90;horizontal=0;" parent="1" vertex="1">
                    <mxGeometry x="1246" y="-524" width="60" height="311" as="geometry"/>
                </mxCell>
                <mxCell id="91" value="$email = $_POST['email']" style="rounded=0;whiteSpace=wrap;html=1;align=center;" parent="1" vertex="1">
                    <mxGeometry x="1117.5" y="-338.5" width="156" height="70" as="geometry"/>
                </mxCell>
                <mxCell id="92" value="$emailErr = 'Only letter/whitspaces allowed'" style="rounded=0;whiteSpace=wrap;html=1;align=center;" parent="1" vertex="1">
                    <mxGeometry x="1278.5" y="-338.5" width="156" height="70" as="geometry"/>
                </mxCell>
            </root>
        </mxGraphModel>
    </diagram>
</mxfile>